<?xml version="1.0" encoding="UTF-8" standalone="no"?>
<svg
   xmlns:dc="http://purl.org/dc/elements/1.1/"
   xmlns:cc="http://creativecommons.org/ns#"
   xmlns:rdf="http://www.w3.org/1999/02/22-rdf-syntax-ns#"
   xmlns:svg="http://www.w3.org/2000/svg"
   xmlns="http://www.w3.org/2000/svg"
   xmlns:sodipodi="http://sodipodi.sourceforge.net/DTD/sodipodi-0.dtd"
   xmlns:inkscape="http://www.inkscape.org/namespaces/inkscape"
   width="297mm"
   height="210mm"
   viewBox="0 0 297 210"
   version="1.1"
   id="svg8"
   inkscape:version="1.0.2 (1.0.2+r75+1)"
   sodipodi:docname="icons_source.svg">
  <defs
     id="defs2" />
  <sodipodi:namedview
     id="base"
     pagecolor="#ffffff"
     bordercolor="#666666"
     borderopacity="1.0"
     inkscape:pageopacity="0.0"
     inkscape:pageshadow="2"
     inkscape:zoom="0.11739182"
     inkscape:cx="793.16636"
     inkscape:cy="-822.84728"
     inkscape:document-units="px"
     inkscape:current-layer="layer1"
     inkscape:document-rotation="0"
     showgrid="false"
     showborder="false"
     inkscape:snap-object-midpoints="false"
     inkscape:snap-center="false"
     inkscape:snap-text-baseline="true"
     inkscape:snap-intersection-paths="false"
     inkscape:object-paths="false"
     inkscape:object-nodes="false"
     inkscape:window-width="1364"
     inkscape:window-height="717"
     inkscape:window-x="0"
     inkscape:window-y="24"
     inkscape:window-maximized="0" />
  <metadata
     id="metadata5">
    <rdf:RDF>
      <cc:Work
         rdf:about="">
        <dc:format>image/svg+xml</dc:format>
        <dc:type
           rdf:resource="http://purl.org/dc/dcmitype/StillImage" />
        <dc:title></dc:title>
      </cc:Work>
    </rdf:RDF>
  </metadata>
  <g
     inkscape:label="Layer 1"
     inkscape:groupmode="layer"
     id="layer1">
    <g
       id="g1019"
       style="fill:none;stroke:#000000"
       transform="matrix(0.40209455,0,0,0.40209455,-460.8688,-161.3572)">
      <g
         id="g1007"
         inkscape:export-xdpi="10.03"
         inkscape:export-ydpi="10.03"
         style="fill:none;stroke:#000000">
        <g
           id="g976"
           style="fill:none;stroke:#000000">
          <circle
             style="fill:none;stroke:#000000;stroke-width:3.76121;stroke-miterlimit:4;stroke-dasharray:none"
             id="circle839"
             cx="77.526222"
             cy="77.65847"
             r="29.780752" />
          <path
             id="rect870"
             style="fill:none;stroke:#000000;stroke-width:3.40969;stroke-miterlimit:4;stroke-dasharray:none"
             inkscape:transform-center-x="33.660746"
             inkscape:transform-center-y="-132.70666"
             d="m 96.917564,-19.608073 c -4.970574,0.0493 -9.679553,4.645243 -11.014434,9.6270918 l -2.137937,7.980087 c -1.644914,3.0043179 -2.56302,5.2674299 -2.936756,6.9802379 a 72.756805,72.756805 0 0 0 -3.302178,-0.07553 72.756805,72.756805 0 0 0 -3.348081,0.07787 c -0.01918,-0.110369 -0.0319,-0.212788 -0.05519,-0.327647 -0.05701,-0.281021 -0.126247,-0.575909 -0.208556,-0.885973 -0.08229,-0.310063 -0.177597,-0.635419 -0.286416,-0.976021 -0.108826,-0.340579 -0.231191,-0.696333 -0.36775,-1.068971 -0.409639,-1.11786504 -0.946435,-2.38344194 -1.627272,-3.8163279 L 69.494476,-10.07332 c -0.04768,-0.177948 -0.09996,-0.355193 -0.15744,-0.531598 -0.05745,-0.17631 -0.120214,-0.351826 -0.187067,-0.526336 -0.06685,-0.17444 -0.137892,-0.348271 -0.213794,-0.520537 -0.37948,-0.861419 -0.869897,-1.692675 -1.447753,-2.471411 -0.115584,-0.155733 -0.234295,-0.309338 -0.356711,-0.460699 -0.122389,-0.15129 -0.24818,-0.300125 -0.377041,-0.446762 -0.128865,-0.146614 -0.261262,-0.291264 -0.396221,-0.432826 -0.944709,-0.990847 -2.033948,-1.852644 -3.205158,-2.524264 -0.334635,-0.19197 -0.675997,-0.3681 -1.022491,-0.52752 -0.3465,-0.15948 -0.69845,-0.30177 -1.053863,-0.42584 -0.177713,-0.062 -0.356262,-0.11925 -0.535647,-0.17187 -0.179374,-0.0526 -0.359597,-0.10055 -0.540294,-0.14357 -0.180707,-0.043 -0.361561,-0.0809 -0.543198,-0.11388 -0.363274,-0.0657 -0.727952,-0.11083 -1.092784,-0.13422 -0.912087,-0.0582 -1.824632,0.0211 -2.71425,0.25911 l -7.980078,2.137922 c -0.177924,0.0477 -0.352866,0.10125 -0.52461,0.16041 -0.515224,0.177012 -1.002541,0.404229 -1.461116,0.675078 -0.305715,0.18052 -0.598432,0.380284 -0.878411,0.597819 -0.139972,0.108733 -0.276688,0.221908 -0.41016,0.339269 -0.533887,0.469211 -1.015752,1.004854 -1.443107,1.591846 -0.641031,0.880477 -1.159903,1.876468 -1.551168,2.937325 -0.06519,0.176778 -0.127252,0.355474 -0.185336,0.535666 -0.116169,0.3603378 -0.217723,0.7270118 -0.305006,1.0980128 -0.08727,0.370977 -0.159895,0.74628 -0.217863,1.124155 -0.02897,0.188937 -0.05455,0.37881 -0.07611,0.568753 -0.02151,0.189873 -0.03933,0.380003 -0.05343,0.570508 -0.02818,0.380985 -0.04153,0.762975 -0.03952,1.143329 0.0042,0.760684 0.06936,1.516248 0.196935,2.251795 0.06379,0.367773 0.142849,0.730566 0.238195,1.086414 l 2.138516,7.9800639 c 0.02453,1.078651 0.07441,2.057362 0.148157,2.944901 0.03688,0.443769 0.0799,0.864647 0.128375,1.26359 0.09699,0.7978643 0.21674,1.5082273 0.357288,2.1385263 0.0948,0.425109 0.199367,0.811098 0.312556,1.165964 A 72.756805,72.756805 0 0 0 38.28697,16.392976 C 37.162394,15.047474 35.335391,13.462082 32.545358,11.53845 L 26.703799,5.6968407 C 22.535824,1.5288737 14.29639,0.50694966 10.12841,4.6749177 L 4.2862699,10.517064 c -4.16796996,4.167968 -2.63947,11.900239 1.52851,16.06823 l 5.8421401,5.841538 c 1.77931,2.926615 3.27978,4.853217 4.57623,6.033282 a 72.756805,72.756805 0 0 0 -3.3231,5.760819 C 11.26338,43.61804 8.8883199,43.15851 5.5103499,42.887614 l -7.98007,-2.138503 c -5.69357,-1.525577 -13.3400399,1.709628 -14.8656299,7.403173 l -2.13794,7.980064 c -1.52558,5.693569 3.66456,11.625624 9.35812,13.151202 l 7.9800799,2.138549 c 3.00433004,1.644902 5.26685,2.563027 6.97966,2.93674 a 72.756805,72.756805 0 0 0 -0.075,3.302175 72.756805,72.756805 0 0 0 0.0773,3.3481 c -1.72748,0.301224 -4.01419996,1.090857 -7.07493,2.545162 L -10.20814,85.69224 c -5.69357,1.525578 -10.69779,8.15074 -9.17222,13.844285 l 2.13794,7.980065 c 1.52559,5.69356 8.9867399,8.23568 14.6802999,6.71011 l 7.98008,-2.13792 c 3.42419,-0.0776 5.8427801,-0.41426 7.5129801,-0.947 a 72.756805,72.756805 0 0 0 3.32716,5.75792 c -1.3455,1.12457 -2.93081,2.9521 -4.8545,5.74222 l -5.8415601,5.84154 c -4.16799,4.16797 -5.18930996,12.40743 -1.02133,16.57542 l 5.8415601,5.84154 c 4.16798,4.16799 11.900234,2.63947 16.068208,-1.5285 l 5.84214,-5.84157 c 2.926935,-1.77949 4.853233,-3.28026 6.033282,-4.57682 a 72.756805,72.756805 0 0 0 5.760222,3.32369 c -0.602895,1.64665 -1.062409,4.02117 -1.333305,7.3991 l -2.137934,7.98012 c -1.525584,5.69352 1.709041,13.34002 7.402602,14.86559 l 7.980076,2.13853 c 5.693564,1.52558 11.626209,-3.66455 13.151795,-9.35812 l 2.137937,-7.98008 c 1.644968,-3.00441 2.563043,-5.26741 2.936754,-6.98024 a 72.756805,72.756805 0 0 0 3.30218,0.0755 72.756805,72.756805 0 0 0 3.348079,-0.0772 c 0.301231,1.72749 1.090848,4.01359 2.545188,7.07433 l 2.138516,7.98009 c 1.52558,5.69357 8.150157,10.69838 13.843713,9.1728 l 7.980067,-2.13852 c 5.69356,-1.52558 8.23626,-8.98616 6.71069,-14.67973 l -2.13851,-7.98006 c -0.0776,-3.42452 -0.41419,-5.84337 -0.94698,-7.51357 a 72.756805,72.756805 0 0 0 5.75846,-3.32657 c 1.12465,1.34541 2.95175,2.93038 5.74165,4.8539 l 5.84156,5.84159 c 4.16796,4.16799 12.40742,5.18987 16.57539,1.02192 l 5.84214,-5.84159 c 4.16795,-4.16797 2.63945,-11.90082 -1.52852,-16.06879 l -5.84213,-5.84159 c -1.77933,-2.92659 -3.2798,-4.85317 -4.57624,-6.03326 a 72.756805,72.756805 0 0 0 3.3231,-5.76082 c 1.64666,0.60294 4.02173,1.06242 7.39971,1.3333 l 7.98005,2.13852 c 5.69354,1.5256 13.34006,-1.7096 14.86564,-7.40314 l 2.13794,-7.98009 c 1.52558,-5.693569 -3.66457,-11.625624 -9.35811,-13.151202 l -7.98009,-2.138525 c -3.00408,-1.644809 -5.26689,-2.562396 -6.97965,-2.936202 a 72.756805,72.756805 0 0 0 0.0751,-3.302176 72.756805,72.756805 0 0 0 -0.0772,-3.348076 c 1.72751,-0.301225 4.01419,-1.091419 7.07496,-2.545747 l 7.97948,-2.137941 c 5.69359,-1.525601 10.69838,-8.150155 9.1728,-13.843723 l -2.1385,-7.980064 c -1.5256,-5.693569 -8.98618,-8.236276 -14.67975,-6.710698 l -7.98006,2.137941 c -3.42415,0.07763 -5.84278,0.414259 -7.51298,0.946979 a 72.756805,72.756805 0 0 0 -3.32718,-5.757896 c 1.34553,-1.124599 2.93024,-2.951542 4.85395,-5.741644 l 5.84214,-5.842147 c 4.16797,-4.167968 5.18931,-12.407423 1.02132,-16.575391 L 144.6704,4.4211357 c -4.168,-4.16796704 -11.90024,-2.639467 -16.06821,1.528524 l -5.84215,5.8415393 c -2.92656,1.779286 -4.85261,3.280382 -6.03269,4.576825 a 72.756805,72.756805 0 0 0 -5.76089,-3.323758 c 0.60284,-1.646656 1.06242,-4.0212843 1.33332,-7.3991043 l 2.13794,-7.9800869 c 1.52567,-5.693499 -1.70895,-13.3399748 -7.40253,-14.8655778 l -7.980063,-2.13789 c -0.711696,-0.19081 -1.427272,-0.2766 -2.137354,-0.26957 z" />
          <circle
             style="fill:none;stroke:#000000;stroke-width:2.52185;stroke-linejoin:bevel;stroke-miterlimit:4;stroke-dasharray:60.5244, 60.5244;stroke-dashoffset:25.2185"
             id="circle897"
             cx="94.206978"
             cy="56.25201"
             r="43.226772"
             transform="rotate(14.258649)" />
          <circle
             style="fill:none;stroke:#000000;stroke-width:2.52185;stroke-linejoin:bevel;stroke-miterlimit:4;stroke-dasharray:60.5244, 60.5244;stroke-dashoffset:25.2185"
             id="circle970"
             cx="-6.3171744"
             cy="109.54147"
             r="43.226772"
             transform="rotate(-48.200016)" />
        </g>
        <path
           id="path980"
           style="fill:none;stroke:#000000;stroke-width:2.39248;stroke-miterlimit:4;stroke-dasharray:none"
           inkscape:transform-center-x="33.660746"
           inkscape:transform-center-y="-132.70666"
           d="m 213.70961,89.62975 c -3.37133,0.894137 -5.77757,4.834584 -5.82269,8.45324 l -0.0721,5.79643 c -0.59832,2.32766 -0.83077,4.02548 -0.78835,5.25486 a 51.051433,51.051433 0 0 0 -2.25847,0.52038 51.051433,51.051433 0 0 0 -2.26313,0.63265 c -0.0322,-0.0717 -0.0585,-0.13917 -0.0943,-0.21324 -0.0874,-0.18122 -0.18556,-0.36974 -0.29521,-0.56633 -0.10964,-0.19659 -0.23078,-0.40132 -0.36375,-0.61408 -0.13296,-0.21274 -0.27776,-0.43346 -0.43514,-0.6632 -0.47209,-0.68919 -1.05623,-1.45681 -1.76727,-2.31326 l -2.83582,-5.05597 c -0.0632,-0.11275 -0.12947,-0.22422 -0.1991,-0.33422 -0.0696,-0.10994 -0.14266,-0.21842 -0.21833,-0.3255 -0.0757,-0.10704 -0.15406,-0.212944 -0.2355,-0.316939 -0.40719,-0.52004 -0.88458,-1.000361 -1.41234,-1.429831 -0.10556,-0.08588 -0.21288,-0.169776 -0.32232,-0.251502 -0.10942,-0.08168 -0.22072,-0.161107 -0.33373,-0.238506 -0.11301,-0.07738 -0.22809,-0.152817 -0.34436,-0.225708 -0.81394,-0.510183 -1.70381,-0.90759 -2.61649,-1.16149 -0.26078,-0.0726 -0.52339,-0.133255 -0.7866,-0.181664 -0.26323,-0.04845 -0.52718,-0.08427 -0.79033,-0.107093 -0.13158,-0.01139 -0.2629,-0.0194 -0.39399,-0.02412 -0.13107,-0.0047 -0.26192,-0.0061 -0.39224,-0.0041 -0.13032,0.002 -0.25986,0.0076 -0.38908,0.01662 -0.25839,0.01822 -0.51418,0.05068 -0.7663,0.09794 -0.63028,0.118346 -1.23706,0.330268 -1.80076,0.646139 l -5.05609,2.835418 c -0.11273,0.06324 -0.22241,0.129944 -0.32895,0.199906 -0.31969,0.20958 -0.61171,0.44845 -0.87664,0.71202 -0.17662,0.17568 -0.34107,0.3622 -0.49379,0.55859 -0.0764,0.0982 -0.14972,0.1988 -0.22016,0.30171 -0.28179,0.41149 -0.5167,0.85915 -0.70566,1.33228 -0.28343,0.70969 -0.46381,1.47678 -0.54618,2.26588 -0.0137,0.13149 -0.025,0.26375 -0.0333,0.39633 -0.0166,0.26513 -0.0222,0.53205 -0.0173,0.79943 0.005,0.26736 0.0205,0.53514 0.0465,0.80212 0.013,0.13349 0.0285,0.26702 0.0467,0.39991 0.0183,0.13284 0.0391,0.26521 0.0625,0.39719 0.0468,0.26393 0.10386,0.52599 0.17108,0.78427 0.13456,0.51652 0.30969,1.019 0.52379,1.49707 0.10705,0.23903 0.22363,0.47203 0.35007,0.69749 l 2.83582,5.05598 c 0.20344,0.72921 0.40681,1.38607 0.61063,1.97681 0.10191,0.29536 0.20404,0.5741 0.30607,0.83698 0.2041,0.52573 0.40852,0.98803 0.61322,1.39228 0.13806,0.27265 0.276,0.51701 0.4144,0.73871 a 51.051433,51.051433 0 0 0 -3.33915,3.25933 c -0.99765,-0.7202 -2.51446,-1.48189 -4.74467,-2.30685 l -4.98354,-2.96072 c -3.55577,-2.11247 -9.33532,-1.38076 -11.44779,2.17501 l -2.96099,4.98403 c -2.11247,3.55576 0.26565,8.54886 3.82143,10.66134 l 4.98392,2.96058 c 1.71661,1.68195 3.07047,2.7322 4.15634,3.31015 a 51.051433,51.051433 0 0 0 -1.26219,4.49258 c -1.22408,-0.12485 -2.91862,-0.0261 -5.26246,0.37457 l -5.79651,-0.0724 c -4.13563,-0.0516 -8.77489,3.47222 -8.82646,7.60783 l -0.0721,5.79641 c -0.0516,4.13563 4.50469,7.27064 8.64031,7.32221 l 5.79652,0.0725 c 2.32767,0.59832 4.0251,0.83088 5.25447,0.78844 a 51.051433,51.051433 0 0 0 0.52075,2.25838 51.051433,51.051433 0 0 0 0.63225,2.26324 c -1.12248,0.50392 -2.54068,1.43678 -4.3701,2.95561 l -5.05608,2.83545 c -3.60734,2.02315 -5.863,7.39453 -3.83986,11.00186 l 2.83543,5.05608 c 2.02316,3.60733 7.5367,4.04408 11.14404,2.02093 l 5.05609,-2.83541 c 2.31493,-0.64564 3.90122,-1.29332 4.94467,-1.94475 a 51.051433,51.051433 0 0 0 3.25932,3.33917 c -0.72019,0.99764 -1.48174,2.5148 -2.30672,4.74508 l -2.96069,4.98352 c -2.11248,3.55577 -1.38036,9.33523 2.17541,11.44771 l 4.98353,2.96068 c 3.55578,2.11247 8.54887,-0.26566 10.66134,-3.82142 l 2.96108,-4.98364 c 1.68214,-1.71679 2.73213,-3.07079 3.31005,-4.15674 a 51.051433,51.051433 0 0 0 4.49227,1.26269 c -0.12485,1.22407 -0.0262,2.91824 0.37448,5.26206 l -0.0721,5.79644 c -0.0516,4.1356 3.47182,8.77498 7.60744,8.82653 l 5.79652,0.0725 c 4.13562,0.0516 7.27105,-4.50478 7.32261,-8.64041 l 0.0721,-5.79642 c 0.59835,-2.32774 0.83079,-4.02548 0.78835,-5.25486 a 51.051433,51.051433 0 0 0 2.25847,-0.52041 51.051433,51.051433 0 0 0 2.26324,-0.63219 c 0.50393,1.1225 1.43667,2.54027 2.95553,4.36969 l 2.83582,5.056 c 2.02315,3.60734 7.39424,5.86349 11.00158,3.84035 l 5.05597,-2.83583 c 3.60734,-2.02315 4.04457,-7.5364 2.02143,-11.14375 l -2.83582,-5.05597 c -0.64569,-2.31515 -1.29337,-3.90163 -1.94483,-4.94508 a 51.051433,51.051433 0 0 0 3.33964,-3.25901 c 0.99768,0.72012 2.51449,1.48151 4.74459,2.30641 l 4.98354,2.96071 c 3.55576,2.11248 9.33532,1.38074 11.44778,-2.17501 l 2.96109,-4.98365 c 2.11245,-3.55576 -0.26577,-8.54926 -3.82153,-10.66173 l -4.98393,-2.96061 c -1.71662,-1.68194 -3.07047,-2.73217 -4.15634,-3.31013 a 51.051433,51.051433 0 0 0 1.26219,-4.49258 c 1.22408,0.12488 2.91862,0.0261 5.26246,-0.37459 l 5.79651,0.0725 c 4.13561,0.0516 8.7749,-3.47221 8.82647,-7.60781 l 0.072,-5.79643 c 0.0516,-4.13563 -4.50469,-7.27064 -8.6403,-7.32221 l -5.79653,-0.0725 c -2.32748,-0.59829 -4.02501,-0.83044 -5.25436,-0.78807 a 51.051433,51.051433 0 0 0 -0.52068,-2.2584 51.051433,51.051433 0 0 0 -0.63219,-2.26324 c 1.12251,-0.50393 2.54058,-1.43716 4.37002,-2.95602 l 5.05568,-2.83533 c 3.60735,-2.02316 5.8635,-7.39423 3.84035,-11.00157 l -2.83581,-5.05598 c -2.02317,-3.60734 -7.53642,-4.04458 -11.14377,-2.02143 l -5.05607,2.83543 c -2.31489,0.64565 -3.90122,1.29331 -4.94468,1.94473 a 51.051433,51.051433 0 0 0 -3.25933,-3.33915 c 0.72021,-0.99767 1.48146,-2.51432 2.30645,-4.7446 l 2.96099,-4.98403 c 2.11246,-3.55576 1.38035,-9.33522 -2.17542,-11.44768 l -4.98353,-2.960656 c -3.55579,-2.112458 -8.54887,0.265658 -10.66133,3.821436 l -2.9611,4.98363 c -1.68192,1.71658 -2.73168,3.07076 -3.30964,4.15663 a 51.051433,51.051433 0 0 0 -4.49274,-1.26262 c 0.12481,-1.22406 0.0262,-2.91832 -0.37447,-5.26206 l 0.0721,-5.796427 c 0.0516,-4.135594 -3.47175,-8.774958 -7.60739,-8.826533 l -5.7964,-0.07203 c -0.51697,-0.0065 -1.0184,0.05904 -1.50002,0.186764 z" />
        <g
           id="g996"
           transform="matrix(0.40215926,-1.0922054,1.0922054,0.40215926,-43.936428,332.52522)"
           style="fill:none;stroke:#000000">
          <circle
             style="fill:none;stroke:#000000;stroke-width:1.34592;stroke-linejoin:bevel;stroke-miterlimit:4;stroke-dasharray:32.3022, 32.3022;stroke-dashoffset:13.4592"
             id="circle982"
             cx="217.24899"
             cy="159.2849"
             r="23.070372"
             transform="rotate(-0.02697885)" />
          <circle
             style="fill:none;stroke:#000000;stroke-width:1.34592;stroke-linejoin:bevel;stroke-miterlimit:4;stroke-dasharray:32.3022, 32.3022;stroke-dashoffset:13.4592"
             id="circle992"
             cx="-215.94809"
             cy="161.04318"
             r="23.070372"
             transform="rotate(-107.06475)" />
        </g>
      </g>
    </g>
    <rect
       style="opacity:1;fill:#000000;stroke:none;stroke-width:8.08185;stroke-linejoin:bevel;stroke-miterlimit:4;stroke-dasharray:none;stroke-dashoffset:25.2185"
       id="rect1021"
       width="931.43597"
       height="575.65906"
       x="-137.84474"
       y="-717.34015" />
    <g
       id="g1113"
       transform="matrix(0.6963401,0,0,0.6963401,-607.07651,-48.729915)"
       inkscape:export-xdpi="20.030001"
       inkscape:export-ydpi="20.030001"
       style="stroke:#000000">
      <g
         id="g1074"
         transform="matrix(1.1563822,0,0,1.1563822,-50.628192,-53.269581)"
         style="stroke:#000000">
        <g
           id="g1056"
           transform="matrix(0.44038278,0,0,0.44038278,160.53812,39.95478)"
           style="stroke:#000000">
          <path
             style="opacity:1;fill:none;stroke:#000000;stroke-width:3.65343;stroke-linejoin:bevel;stroke-miterlimit:4;stroke-dasharray:none;stroke-dashoffset:95.314"
             id="path1025"
             sodipodi:type="arc"
             sodipodi:cx="-316.67773"
             sodipodi:cy="-75.25264"
             sodipodi:rx="59.69796"
             sodipodi:ry="51.927422"
             sodipodi:start="0"
             sodipodi:end="3.134088"
             sodipodi:arc-type="slice"
             d="m -256.97977,-75.25264 a 59.69796,51.927422 0 0 1 -59.47396,51.927056 59.69796,51.927422 0 0 1 -59.92028,-51.537362 l 59.69628,-0.389694 z"
             transform="scale(-1)" />
          <rect
             style="opacity:1;fill:none;stroke:#000000;stroke-width:3.65343;stroke-linejoin:bevel;stroke-miterlimit:4;stroke-dasharray:none;stroke-dashoffset:95.314"
             id="rect1027"
             width="126.92252"
             height="11.106689"
             x="253.21562"
             y="75.149681"
             ry="5.5533447" />
          <path
             id="rect1038"
             style="fill:#ffffff;stroke:#000000;stroke-width:2.72253;stroke-linejoin:bevel;stroke-miterlimit:4;stroke-dasharray:none;stroke-dashoffset:95.314"
             d="m 299.29264,16.405979 c -2.47904,0 -4.47479,1.995744 -4.47479,4.474796 v 35.798696 c 0,2.479054 1.99575,4.474794 4.47479,4.474794 2.47905,0 4.4748,-1.99574 4.4748,-4.474794 v -31.3239 h 26.8491 v 31.3239 c 0,2.479054 1.99575,4.474794 4.4748,4.474794 2.47905,0 4.4748,-1.99574 4.4748,-4.474794 V 20.880775 c 0,-2.479052 -1.99575,-4.474796 -4.4748,-4.474796 z" />
        </g>
        <circle
           style="opacity:1;fill:none;stroke:#000000;stroke-width:2.27304;stroke-linejoin:bevel;stroke-miterlimit:4;stroke-dasharray:none;stroke-dashoffset:95.314"
           id="path1061"
           sodipodi:type="arc"
           sodipodi:cx="299.9968"
           sodipodi:cy="78.291138"
           sodipodi:rx="24.939213"
           sodipodi:ry="40.352493"
           sodipodi:start="0"
           sodipodi:end="3.1340877"
           sodipodi:arc-type="slice"
           d="M 324.93601,78.291138 A 24.939213,40.352493 0 0 1 300.09038,118.64335 24.939213,40.352493 0 0 1 275.05829,78.593978 l 24.93851,-0.30284 z" />
        <circle
           style="opacity:1;fill:none;stroke:#000000;stroke-width:1.86429;stroke-linejoin:bevel;stroke-miterlimit:4;stroke-dasharray:none;stroke-dashoffset:95.314"
           id="path1063"
           sodipodi:type="arc"
           sodipodi:cx="83.975319"
           sodipodi:cy="-275.09869"
           sodipodi:rx="5.3814845"
           sodipodi:ry="5.3814845"
           sodipodi:start="0"
           sodipodi:end="3.1340877"
           sodipodi:arc-type="slice"
           d="m 89.356803,-275.09869 a 5.3814845,5.3814845 0 0 1 -5.36129,5.38144 5.3814845,5.3814845 0 0 1 -5.401527,-5.34106 l 5.381333,-0.0404 z"
           transform="rotate(90)" />
        <circle
           style="opacity:1;fill:none;stroke:#000000;stroke-width:1.86429;stroke-linejoin:bevel;stroke-miterlimit:4;stroke-dasharray:none;stroke-dashoffset:95.314"
           id="circle1065"
           sodipodi:type="arc"
           sodipodi:cx="83.975319"
           sodipodi:cy="324.82825"
           sodipodi:rx="5.3814845"
           sodipodi:ry="5.3814845"
           sodipodi:start="0"
           sodipodi:end="3.1340877"
           sodipodi:arc-type="slice"
           d="m 89.356803,324.82825 a 5.3814845,5.3814845 0 0 1 -5.36129,5.38144 5.3814845,5.3814845 0 0 1 -5.401527,-5.34106 l 5.381333,-0.0404 z"
           transform="matrix(0,1,1,0,0,0)" />
      </g>
      <path
         id="rect1079"
         style="opacity:1;fill:none;stroke:#000000;stroke-width:2.56143;stroke-linejoin:bevel;stroke-miterlimit:4;stroke-dasharray:none;stroke-dashoffset:95.314"
         d="m 282.49932,77.925681 c 8.57076,4.270741 1.59693,3.982245 14.17155,5.33064 3.83714,0.411462 6.4703,-1.059208 15.37037,-6.601367 4.49577,-2.799557 -2.12637,23.27234 -2.12637,23.27234 L 295.80786,106.9296 282.6946,99.782964 c 0,0 -4.80438,-24.153964 -0.19528,-21.857283 z"
         sodipodi:nodetypes="ssscccs" />
      <path
         style="color:#000000;font-style:normal;font-variant:normal;font-weight:normal;font-stretch:normal;font-size:medium;line-height:normal;font-family:sans-serif;font-variant-ligatures:normal;font-variant-position:normal;font-variant-caps:normal;font-variant-numeric:normal;font-variant-alternates:normal;font-variant-east-asian:normal;font-feature-settings:normal;font-variation-settings:normal;text-indent:0;text-align:start;text-decoration:none;text-decoration-line:none;text-decoration-style:solid;text-decoration-color:#000000;letter-spacing:normal;word-spacing:normal;text-transform:none;writing-mode:lr-tb;direction:ltr;text-orientation:mixed;dominant-baseline:auto;baseline-shift:baseline;text-anchor:start;white-space:normal;shape-padding:0;shape-margin:0;inline-size:0;clip-rule:nonzero;display:inline;overflow:visible;visibility:visible;opacity:1;isolation:auto;mix-blend-mode:normal;color-interpolation:sRGB;color-interpolation-filters:linearRGB;solid-color:#000000;solid-opacity:1;vector-effect:none;fill:#ffffff;fill-opacity:1;fill-rule:nonzero;stroke:#000000;stroke-linecap:butt;stroke-linejoin:bevel;stroke-miterlimit:4;stroke-dasharray:none;stroke-dashoffset:95.314;stroke-opacity:1;color-rendering:auto;image-rendering:auto;shape-rendering:auto;text-rendering:auto;enable-background:accumulate;stop-color:#000000;stop-opacity:1"
         d="m 253.67188,97.314453 c -12.70499,0 -22.98829,10.281347 -22.98829,22.986327 v 21.07031 c 0,5.56866 -0.084,19.35157 -0.084,19.35157 l 0.45703,1.18359 c 2.61184,2.82632 6.87085,3.12792 11.0957,3.07617 4.22486,-0.0517 8.63699,-0.62304 11.51954,-0.62304 h 84.6621 c 3.13185,0 7.20893,0.5415 11.10157,0.48632 3.89263,-0.0552 7.85964,-0.69186 10.32812,-3.69531 2.09977,-2.55481 2.19376,-6.23637 2.10547,-9.92578 -0.0883,-3.68941 -0.54883,-7.49012 -0.54883,-9.85352 v -21.07031 c 0,-12.70554 -10.2779,-23.384597 -23.04101,-22.986327 l -28.41797,0.886719 -0.71485,0.179687 -13.30078,6.603521 -12.32422,-6.716802 -0.7832,-0.210937 -29.02344,-0.742188 -0.043,3.453127 28.5625,0.73047 12.74804,6.94726 1.59375,0.0313 13.76953,-6.83594 28.04297,-0.875 c 10.78255,-0.33646 19.48047,8.68359 19.48047,19.53516 v 21.07031 c 0,2.77734 0.46629,6.48611 0.54883,9.93555 0.0825,3.44944 -0.40695,6.53671 -1.32227,7.65039 -1.42467,1.73343 -4.18683,2.38758 -7.70898,2.4375 -3.52215,0.0499 -7.54674,-0.48828 -11.05274,-0.48828 h -84.6621 c -3.30969,0 -7.63171,0.57685 -11.5625,0.625 -3.58434,0.0439 -6.5797,-0.52042 -8.05469,-1.6543 0.007,-1.13549 0.082,-13.15266 0.082,-18.50586 v -21.07031 c 0,-10.85213 8.68302,-19.5332 19.53516,-19.5332 z"
         id="rect1076" />
      <rect
         style="opacity:1;fill:none;stroke:#000000;stroke-width:4.10565;stroke-linejoin:bevel;stroke-miterlimit:4;stroke-dasharray:none;stroke-dashoffset:95.314"
         id="rect1086"
         width="0.096375033"
         height="54.608253"
         x="296.19687"
         y="106.79597" />
      <circle
         style="opacity:1;fill:none;stroke:#000000;stroke-width:3.31647;stroke-linejoin:bevel;stroke-miterlimit:4;stroke-dasharray:none;stroke-dashoffset:95.314"
         id="path1088"
         sodipodi:type="arc"
         sodipodi:cx="-262.77899"
         sodipodi:cy="-103.17232"
         sodipodi:rx="14.9553"
         sodipodi:ry="14.9553"
         sodipodi:start="0"
         sodipodi:end="3.1340877"
         sodipodi:arc-type="slice"
         d="m -247.82369,-103.17232 a 14.9553,14.9553 0 0 1 -14.89918,14.955198 14.9553,14.9553 0 0 1 -15.011,-14.842958 l 14.95488,-0.11224 z"
         transform="rotate(178.95105)" />
      <circle
         style="opacity:1;fill:none;stroke:#000000;stroke-width:3.31647;stroke-linejoin:bevel;stroke-miterlimit:4;stroke-dasharray:none;stroke-dashoffset:95.314"
         id="circle1092"
         sodipodi:type="arc"
         sodipodi:cx="-325.92819"
         sodipodi:cy="-104.32856"
         sodipodi:rx="14.9553"
         sodipodi:ry="14.9553"
         sodipodi:start="0"
         sodipodi:end="3.1340877"
         sodipodi:arc-type="slice"
         d="m -310.97289,-104.32856 a 14.9553,14.9553 0 0 1 -14.89918,14.955195 14.9553,14.9553 0 0 1 -15.011,-14.842955 l 14.95488,-0.11224 z"
         transform="rotate(178.95105)" />
      <rect
         style="opacity:1;fill:none;stroke:#000000;stroke-width:1.68894;stroke-linejoin:bevel;stroke-miterlimit:4;stroke-dasharray:20.2673, 20.2673;stroke-dashoffset:0"
         id="rect1094"
         width="9.3749847"
         height="62.552662"
         x="323.62616"
         y="97.195702"
         transform="matrix(0.99997359,0.0072673,-0.00408089,0.99999167,0,0)" />
      <rect
         style="opacity:1;fill:none;stroke:#000000;stroke-width:1.68894;stroke-linejoin:bevel;stroke-miterlimit:4;stroke-dasharray:20.2673, 20.2673;stroke-dashoffset:16.8894"
         id="rect1096"
         width="9.3749847"
         height="62.552662"
         x="260.4957"
         y="97.654488"
         transform="matrix(0.99997359,0.0072673,-0.00408089,0.99999167,0,0)" />
    </g>
    <g
       id="g1178"
       transform="matrix(0.34292653,0,0,0.34292653,-486.27812,76.608775)"
       inkscape:export-xdpi="10.03"
       inkscape:export-ydpi="10.03"
       style="stroke:#000000">
      <g
         id="g1145"
         style="stroke:#000000">
        <rect
           style="fill:none;stroke:#000000;stroke-width:2.83444;stroke-linejoin:bevel;stroke-miterlimit:4;stroke-dasharray:none;stroke-dashoffset:16.8894"
           id="rect1115"
           width="253.45641"
           height="58.133144"
           x="233.1261"
           y="204.84087"
           ry="29.066572" />
        <g
           id="g1138"
           transform="translate(6.6144604)"
           style="stroke:#000000">
          <circle
             style="fill:none;stroke:#000000;stroke-width:2.83444;stroke-linejoin:bevel;stroke-miterlimit:4;stroke-dasharray:none;stroke-dashoffset:63.8338"
             id="path1119"
             sodipodi:type="arc"
             sodipodi:cx="282.56235"
             sodipodi:cy="233.90756"
             sodipodi:rx="19.316109"
             sodipodi:ry="19.316109"
             sodipodi:start="3.2003495"
             sodipodi:end="3.1340877"
             sodipodi:arc-type="arc"
             sodipodi:open="true"
             d="m 263.27957,232.77326 a 19.316109,19.316109 0 0 1 20.09751,-18.16462 19.316109,19.316109 0 0 1 18.49503,19.79386 19.316109,19.316109 0 0 1 -19.48477,18.82038 19.316109,19.316109 0 0 1 -19.14056,-19.17035" />
          <circle
             style="fill:none;stroke:#000000;stroke-width:2.83444;stroke-linejoin:bevel;stroke-miterlimit:4;stroke-dasharray:none;stroke-dashoffset:63.8338"
             id="circle1121"
             sodipodi:type="arc"
             sodipodi:cx="283.54819"
             sodipodi:cy="-314.79129"
             sodipodi:rx="19.316109"
             sodipodi:ry="19.316109"
             sodipodi:start="3.2003495"
             sodipodi:end="3.1340877"
             sodipodi:arc-type="arc"
             sodipodi:open="true"
             transform="rotate(81.500417)"
             d="m 264.26541,-315.92559 a 19.316109,19.316109 0 0 1 20.09751,-18.16462 19.316109,19.316109 0 0 1 18.49503,19.79386 19.316109,19.316109 0 0 1 -19.48477,18.82038 19.316109,19.316109 0 0 1 -19.14056,-19.17036" />
          <circle
             style="fill:none;stroke:#000000;stroke-width:2.83444;stroke-linejoin:bevel;stroke-miterlimit:4;stroke-dasharray:none;stroke-dashoffset:63.8338"
             id="circle1123"
             sodipodi:type="arc"
             sodipodi:cx="-477.80417"
             sodipodi:cy="78.277748"
             sodipodi:rx="19.316109"
             sodipodi:ry="19.316109"
             sodipodi:start="3.2003495"
             sodipodi:end="3.1340877"
             sodipodi:arc-type="arc"
             sodipodi:open="true"
             transform="rotate(-141.80749)"
             d="m -497.08694,77.143447 a 19.316109,19.316109 0 0 1 20.0975,-18.164618 19.316109,19.316109 0 0 1 18.49504,19.793859 19.316109,19.316109 0 0 1 -19.48478,18.820376 19.316109,19.316109 0 0 1 -19.14055,-19.170351" />
        </g>
      </g>
      <rect
         style="opacity:1;fill:none;stroke:#000000;stroke-width:3.47073;stroke-linejoin:bevel;stroke-miterlimit:4;stroke-dasharray:none;stroke-dashoffset:63.8338"
         id="rect1147"
         width="194.16035"
         height="19.714502"
         x="263.19327"
         y="184.60275" />
      <path
         id="rect1149"
         style="opacity:1;fill:none;stroke:#000000;stroke-width:3.32818;stroke-linejoin:bevel;stroke-miterlimit:4;stroke-dasharray:none;stroke-dashoffset:63.8338"
         d="m 290.34261,101.43676 23.77202,-22.720535 h 65.75818 V 184.52616 H 263.26987 v -59.48887 z"
         sodipodi:nodetypes="ccccccc" />
      <path
         id="path1152"
         style="opacity:1;fill:none;stroke:#000000;stroke-width:3.59992;stroke-linejoin:bevel;stroke-miterlimit:4;stroke-dasharray:none;stroke-dashoffset:63.8338"
         d="m 301.87636,108.41061 12.9777,-12.545079 h 35.89892 v 58.422649 h -63.65626 v -32.8466 z"
         sodipodi:nodetypes="ccccccc" />
      <rect
         style="opacity:1;fill:none;stroke:#000000;stroke-width:4.22191;stroke-linejoin:bevel;stroke-miterlimit:4;stroke-dasharray:none;stroke-dashoffset:63.8338"
         id="rect1154"
         width="102.91967"
         height="49.971863"
         x="379.9776"
         y="134.44951" />
      <path
         id="rect1158"
         style="opacity:1;fill:none;stroke:#000000;stroke-width:3.68847;stroke-linejoin:bevel;stroke-miterlimit:4;stroke-dasharray:none;stroke-dashoffset:63.8338"
         transform="matrix(0.68123208,0.73206752,-0.76855482,0.63978394,0,0)"
         d="m 106.81242,-165.70691 35.64131,-1.55342 118.7021,-5.1736 2.84206,46.52538 -120.58844,-9.41719 45.79957,92.522656 -3.8337,3.178509 z"
         sodipodi:nodetypes="cccccccc" />
      <path
         id="rect1163"
         style="opacity:1;fill:none;stroke:#000000;stroke-width:3.59992;stroke-linejoin:bevel;stroke-miterlimit:4;stroke-dasharray:none;stroke-dashoffset:63.8338"
         d="m 155.59564,110.38861 h 44.29959 l 8.77883,-14.595875 -1.54898,24.841635 -0.39579,48.29549 -51.47907,-26.15092 z"
         sodipodi:nodetypes="ccccccc" />
    </g>
    <g
       id="g1248"
       inkscape:export-xdpi="10.03"
       inkscape:export-ydpi="10.03"
       style="stroke:#000000"
       transform="matrix(0.33411816,0,0,0.33411816,-391.63292,-52.459535)">
      <g
         id="g1227"
         style="stroke:#000000;stroke-width:5.29167;stroke-miterlimit:4;stroke-dasharray:none">
        <path
           id="rect1180"
           style="opacity:1;fill:none;stroke:#000000;stroke-width:5.29167;stroke-linejoin:bevel;stroke-miterlimit:4;stroke-dasharray:none;stroke-dashoffset:63.8338"
           d="m 223.18823,86.37523 h 80.32664 l 14.81229,117.89006 -110.14145,-0.68396 z"
           sodipodi:nodetypes="ccccc" />
        <rect
           style="opacity:1;fill:none;stroke:#000000;stroke-width:5.29167;stroke-linejoin:bevel;stroke-miterlimit:4;stroke-dasharray:none;stroke-dashoffset:63.8338"
           id="rect1183"
           width="45.688862"
           height="67.463516"
           x="240.4122"
           y="-204.06029"
           transform="scale(1,-1)" />
        <path
           id="path1185"
           style="opacity:1;fill:none;stroke:#000000;stroke-width:5.29167;stroke-linejoin:bevel;stroke-miterlimit:4;stroke-dasharray:none;stroke-dashoffset:63.8338"
           d="m 251.17606,-54.093824 27.33639,0.62331 15.09268,139.761088 -60.69998,-0.822974 z"
           sodipodi:nodetypes="ccccc" />
        <path
           id="rect1187"
           style="opacity:1;fill:none;stroke:#000000;stroke-width:5.29167;stroke-linejoin:bevel;stroke-miterlimit:4;stroke-dasharray:none;stroke-dashoffset:63.8338"
           d="m 304.36697,86.661217 h 75.91224 V 204.0228 l -61.09911,0.24461 z"
           sodipodi:nodetypes="ccccc" />
        <rect
           style="opacity:1;fill:none;stroke:#000000;stroke-width:5.29167;stroke-linejoin:bevel;stroke-miterlimit:4;stroke-dasharray:none;stroke-dashoffset:63.8338"
           id="rect1190"
           width="26.895771"
           height="39.713909"
           x="328.88226"
           y="-86.225105"
           transform="scale(1,-1)" />
        <g
           id="g1198"
           transform="translate(-1.7609692)"
           style="stroke:#000000;stroke-width:5.29167;stroke-miterlimit:4;stroke-dasharray:none">
          <rect
             style="opacity:1;fill:none;stroke:#000000;stroke-width:5.29167;stroke-linejoin:bevel;stroke-miterlimit:4;stroke-dasharray:none;stroke-dashoffset:63.8338"
             id="rect1192"
             width="0.19133484"
             height="70.793892"
             x="330.21634"
             y="108.38686" />
          <rect
             style="opacity:1;fill:none;stroke:#000000;stroke-width:5.29167;stroke-linejoin:bevel;stroke-miterlimit:4;stroke-dasharray:none;stroke-dashoffset:63.8338"
             id="rect1194"
             width="0.19133484"
             height="70.793892"
             x="357.77496"
             y="108.38686" />
        </g>
        <path
           id="rect1200"
           style="opacity:1;fill:none;stroke:#000000;stroke-width:5.29167;stroke-linejoin:bevel;stroke-miterlimit:4;stroke-dasharray:none;stroke-dashoffset:63.8338"
           d="M 380.27921,86.661217 449.06852,52.921624 448.45275,204.24019 H 380.27921 Z"
           sodipodi:nodetypes="ccccc" />
        <rect
           style="opacity:1;fill:none;stroke:#000000;stroke-width:5.29167;stroke-linejoin:bevel;stroke-miterlimit:4;stroke-dasharray:none;stroke-dashoffset:63.8338"
           id="rect1203"
           width="25.946625"
           height="25.946625"
           x="401.70053"
           y="101.52565" />
        <rect
           style="opacity:1;fill:none;stroke:#000000;stroke-width:5.29167;stroke-linejoin:bevel;stroke-miterlimit:4;stroke-dasharray:none;stroke-dashoffset:63.8338"
           id="rect1205"
           width="22.417833"
           height="46.128952"
           x="403.46494"
           y="156.88988" />
        <path
           id="path1207"
           style="opacity:1;fill:none;stroke:#000000;stroke-width:5.29167;stroke-linejoin:bevel;stroke-miterlimit:4;stroke-dasharray:none;stroke-dashoffset:63.8338"
           d="M 448.45275,86.661217 517.24206,52.921624 516.62629,204.24019 H 448.45275 Z"
           sodipodi:nodetypes="ccccc" />
        <rect
           style="opacity:1;fill:none;stroke:#000000;stroke-width:5.29167;stroke-linejoin:bevel;stroke-miterlimit:4;stroke-dasharray:none;stroke-dashoffset:63.8338"
           id="rect1209"
           width="25.946625"
           height="25.946625"
           x="469.87408"
           y="101.52565" />
        <rect
           style="opacity:1;fill:none;stroke:#000000;stroke-width:5.29167;stroke-linejoin:bevel;stroke-miterlimit:4;stroke-dasharray:none;stroke-dashoffset:63.8338"
           id="rect1211"
           width="22.417833"
           height="46.128952"
           x="471.63849"
           y="156.88988" />
      </g>
      <path
         id="rect1229"
         style="opacity:1;fill:none;stroke:#000000;stroke-width:5.29167;stroke-linejoin:bevel;stroke-miterlimit:4;stroke-dasharray:none;stroke-dashoffset:63.8338"
         d="m 326.28176,-92.456371 c 6.01617,-1.672308 17.89709,-11.331589 24.09388,-10.562979 13.32198,1.65238 14.14469,8.180329 37.12887,8.823476 l 47.31234,-7.288766 38.63764,-3.20277 c 28.75798,4.51237 12.97916,12.581432 37.18117,20.677982 10.4269,3.488224 32.2315,-3.138325 52.48283,1.19598 8.46254,1.811194 -53.11608,12.639892 -54.18132,21.228264 -0.95027,7.661387 -6.12718,-2.672671 -12.4816,1.711524 -10.3476,7.139258 -16.54505,17.0303 -31.23571,9.192873 -18.87267,-10.068525 -25.33544,-8.617258 -41.26044,-11.304986 -31.26423,-5.276598 -61.29926,16.657224 -81.93086,-7.266729 -6.39566,-7.416262 -39.73283,-13.363856 -64.34145,1.749967 -3.967,2.436395 -23.19093,10.501831 -6.39444,-9.951909 1.47856,-1.80051 12.39911,-5.199129 12.3352,-7.209477 -0.33131,-10.422942 32.60663,-4.999645 42.65389,-7.79245 z"
         sodipodi:nodetypes="sssccsssssssssss" />
    </g>
    <g
       id="g1302"
       inkscape:export-xdpi="10.03"
       inkscape:export-ydpi="10.03"
       style="stroke:#000000"
       transform="matrix(0.44116841,0,0,0.44116841,-326.94578,90.983227)">
      <rect
         style="opacity:1;fill:none;stroke:#000000;stroke-width:3.93954;stroke-linejoin:bevel;stroke-miterlimit:4;stroke-dasharray:none;stroke-dashoffset:63.8338"
         id="rect1250"
         width="104.26419"
         height="104.26419"
         x="378.87216"
         y="178.29091" />
      <rect
         style="opacity:1;fill:none;stroke:#000000;stroke-width:3.93954;stroke-linejoin:bevel;stroke-miterlimit:4;stroke-dasharray:none;stroke-dashoffset:63.8338"
         id="rect1252"
         width="88.66584"
         height="21.196453"
         x="386.67133"
         y="157.19878" />
      <path
         id="rect1254"
         style="opacity:1;fill:none;stroke:#000000;stroke-width:3.93954;stroke-linejoin:bevel;stroke-miterlimit:4;stroke-dasharray:none;stroke-dashoffset:63.8338"
         d="m 402.04627,61.66151 7.0045,5.076016 7.12779,3.854134 12.83609,3.108997 9.3449,-0.669417 8.71523,-2.908427 7.22925,-4.552448 6.12933,-3.731203 -0.36688,95.359618 h -58.12444 z"
         sodipodi:nodetypes="ccccccccccc" />
      <circle
         style="opacity:1;fill:none;stroke:#000000;stroke-width:3.93954;stroke-linejoin:bevel;stroke-miterlimit:4;stroke-dasharray:none;stroke-dashoffset:63.8338"
         id="path1256"
         sodipodi:type="arc"
         sodipodi:cx="431.00421"
         sodipodi:cy="34.639477"
         sodipodi:rx="38.900925"
         sodipodi:ry="38.900925"
         sodipodi:start="3.2003579"
         sodipodi:end="3.1913883"
         sodipodi:open="true"
         sodipodi:arc-type="arc"
         d="M 392.17044,32.35477 A 38.900925,38.900925 0 0 1 433.20183,-4.1993235 38.900925,38.900925 0 0 1 469.84784,36.75 38.900925,38.900925 0 0 1 428.9808,73.487742 38.900925,38.900925 0 0 1 392.15151,32.703181" />
      <path
         id="rect1259"
         style="opacity:1;fill:none;stroke:#000000;stroke-width:5.29167;stroke-linejoin:bevel;stroke-miterlimit:4;stroke-dasharray:none;stroke-dashoffset:63.8338"
         transform="rotate(35.701801)"
         d="m 237.70421,-264.74866 131.72578,2.78572 -10.53864,1.74594 -11.56858,6.10775 8.95329,-5.32817 -10.11688,6.88004 -10.04431,10.72208 8.00738,-8.97368 7.04274,-4.8987 -12.12265,9.36309 -5.68507,11.63785 -1.38601,16.1479 2.22121,9.77343 3.74169,7.50767 -103.45364,-1.77717 7.15707,-8.96411 4.46817,-7.74074 2.74585,-12.18748 0.63577,-8.07243 -1.89952,-7.667 -4.09978,-9.51096 z"
         sodipodi:nodetypes="cccccccccccccccccccccc" />
      <circle
         style="opacity:1;fill:none;stroke:#000000;stroke-width:4.49431;stroke-linejoin:bevel;stroke-miterlimit:4;stroke-dasharray:none;stroke-dashoffset:63.8338"
         id="path1262"
         sodipodi:type="arc"
         sodipodi:cx="306.69427"
         sodipodi:cy="-69.93618"
         sodipodi:rx="40.566525"
         sodipodi:ry="40.566525"
         sodipodi:start="3.2003579"
         sodipodi:end="3.1913869"
         sodipodi:open="true"
         sodipodi:arc-type="arc"
         d="m 266.19778,-72.31871 a 40.566525,40.566525 0 0 1 42.7882,-38.11921 40.566525,40.566525 0 0 1 38.21507,42.702599 40.566525,40.566525 0 0 1 -42.61678,38.310754 40.566525,40.566525 0 0 1 -38.40624,-42.530758" />
      <path
         id="rect1264"
         style="opacity:1;fill:none;stroke:#000000;stroke-width:5.82083;stroke-linejoin:bevel;stroke-miterlimit:4;stroke-dasharray:none;stroke-dashoffset:63.8338"
         transform="rotate(-49.40229)"
         d="m 106.38967,150.24487 120.52534,1.13979 c 15.28865,0.14458 -13.63752,10.7197 -13.63752,26.00903 0,5.62909 -2.48648,12.98357 -0.52355,17.79318 1.70863,4.18652 2.68852,9.50269 4.24817,11.74943 1.51528,2.1828 3.70695,1.35767 -1.05198,1.23891 l -109.56046,-2.73418 c -15.284573,-0.38144 -27.598075,-12.30874 -27.598075,-27.59808 0,-15.28933 12.309427,-27.74266 27.598075,-27.59808 z"
         sodipodi:nodetypes="sssssssss" />
      <rect
         style="opacity:1;fill:none;stroke:#000000;stroke-width:3.27549;stroke-linejoin:bevel;stroke-miterlimit:4;stroke-dasharray:none;stroke-dashoffset:63.8338"
         id="rect1267"
         width="45.908905"
         height="0.97759843"
         x="68.068069"
         y="169.65187"
         transform="matrix(0.70618458,-0.70802779,0.61484842,0.78864531,0,0)" />
      <rect
         style="opacity:1;fill:none;stroke:#000000;stroke-width:5.26306;stroke-linejoin:bevel;stroke-miterlimit:4;stroke-dasharray:none;stroke-dashoffset:63.8338"
         id="rect1269"
         width="128.33752"
         height="104.01067"
         x="79.587654"
         y="177.88266" />
      <path
         id="rect1271"
         style="opacity:1;fill:none;stroke:#000000;stroke-width:5.49619;stroke-linejoin:bevel;stroke-miterlimit:4;stroke-dasharray:none;stroke-dashoffset:63.8338"
         d="m 104.79865,129.26831 h 57.72573 l 11.30654,9.00937 8.88328,12.45765 v 26.68744 h -77.91555 z"
         sodipodi:nodetypes="ccccccc" />
      <rect
         style="opacity:1;fill:none;stroke:#000000;stroke-width:5.82083;stroke-linejoin:bevel;stroke-miterlimit:4;stroke-dasharray:none;stroke-dashoffset:63.8338"
         id="rect1274"
         width="101.0707"
         height="0.27464867"
         x="93.221077"
         y="157.70164" />
      <rect
         style="opacity:1;fill:none;stroke:#000000;stroke-width:6.13783;stroke-linejoin:bevel;stroke-miterlimit:4;stroke-dasharray:73.654, 73.654;stroke-dashoffset:0"
         id="rect1276"
         width="125.09603"
         height="1.8106909"
         x="80.810661"
         y="233.0937" />
      <circle
         style="opacity:1;fill:none;stroke:#000000;stroke-width:3.54653;stroke-linejoin:bevel;stroke-miterlimit:4;stroke-dasharray:42.5583, 42.5583;stroke-dashoffset:0"
         id="path1278"
         sodipodi:type="arc"
         sodipodi:cx="127.41425"
         sodipodi:cy="88.6605"
         sodipodi:rx="2.7856238"
         sodipodi:ry="0.92854136"
         sodipodi:start="3.2003579"
         sodipodi:end="3.1913869"
         sodipodi:open="true"
         sodipodi:arc-type="arc"
         d="m 124.63344,88.605965 a 2.7856238,0.92854136 0 0 1 2.93818,-0.872524 2.7856238,0.92854136 0 0 1 2.62415,0.977435 2.7856238,0.92854136 0 0 1 -2.92641,0.876908 2.7856238,0.92854136 0 0 1 -2.63728,-0.973501" />
      <circle
         style="opacity:1;fill:none;stroke:#000000;stroke-width:3.54653;stroke-linejoin:bevel;stroke-miterlimit:4;stroke-dasharray:42.5583, 42.5583;stroke-dashoffset:0"
         id="circle1280"
         sodipodi:type="arc"
         sodipodi:cx="177.38882"
         sodipodi:cy="95.567703"
         sodipodi:rx="2.7856238"
         sodipodi:ry="0.92854136"
         sodipodi:start="3.2003579"
         sodipodi:end="3.1913869"
         sodipodi:open="true"
         sodipodi:arc-type="arc"
         d="m 174.60801,95.513169 a 2.7856238,0.92854136 0 0 1 2.93818,-0.872524 2.7856238,0.92854136 0 0 1 2.62416,0.977434 2.7856238,0.92854136 0 0 1 -2.92642,0.876909 2.7856238,0.92854136 0 0 1 -2.63728,-0.973502" />
      <circle
         style="opacity:1;fill:none;stroke:#000000;stroke-width:3.54653;stroke-linejoin:bevel;stroke-miterlimit:4;stroke-dasharray:42.5583, 42.5583;stroke-dashoffset:0"
         id="circle1282"
         sodipodi:type="arc"
         sodipodi:cx="166.77864"
         sodipodi:cy="104.59487"
         sodipodi:rx="2.7856238"
         sodipodi:ry="0.92854136"
         sodipodi:start="3.2003579"
         sodipodi:end="3.1913869"
         sodipodi:open="true"
         sodipodi:arc-type="arc"
         d="m 163.99783,104.54034 a 2.7856238,0.92854136 0 0 1 2.93818,-0.87253 2.7856238,0.92854136 0 0 1 2.62415,0.97744 2.7856238,0.92854136 0 0 1 -2.92641,0.87691 2.7856238,0.92854136 0 0 1 -2.63728,-0.97351" />
      <circle
         style="opacity:1;fill:none;stroke:#000000;stroke-width:3.54653;stroke-linejoin:bevel;stroke-miterlimit:4;stroke-dasharray:42.5583, 42.5583;stroke-dashoffset:0"
         id="circle1284"
         sodipodi:type="arc"
         sodipodi:cx="133.95493"
         sodipodi:cy="100.25546"
         sodipodi:rx="2.7856238"
         sodipodi:ry="0.92854136"
         sodipodi:start="3.2003579"
         sodipodi:end="3.1913869"
         sodipodi:open="true"
         sodipodi:arc-type="arc"
         d="m 131.17411,100.20093 a 2.7856238,0.92854136 0 0 1 2.93818,-0.872526 2.7856238,0.92854136 0 0 1 2.62416,0.977436 2.7856238,0.92854136 0 0 1 -2.92641,0.87691 2.7856238,0.92854136 0 0 1 -2.63729,-0.9735" />
    </g>
    <path
       style="fill:#ffffff;stroke-width:6.23303"
       d="M 246.15085,117.41604 C 174.78859,45.163835 173.24432,43.004955 173.24432,15.492795 c 0,-56.34182 47.02731,-94.00625 99.67446,-79.82985 12.9437,3.48538 27.00903,10.52421 31.25631,15.64186 9.65041,11.62805 1.64976,11.60895 -18.73622,-0.0447 -32.98185,-18.85413 -79.26285,-5.50086 -96.50646,27.84461 -20.9201,40.45502 -11.7647,58.15458 74.1515,143.352395 50.39643,49.97504 67.49914,63.5219 73.11083,57.9102 5.61168,-5.61168 -4.83006,-19.77857 -44.63653,-60.56071 -28.57899,-29.279475 -49.29044,-53.235435 -46.02541,-53.235435 3.26502,0 26.83247,21.03649 52.37213,46.747735 44.54949,44.84883 62.33031,55.91046 62.33031,38.77639 0,-9.89351 -75.56668,-85.524125 -85.45184,-85.524125 -3.96196,0 -9.09205,-5.95008 -11.4002,-13.22242 -3.40552,-10.72985 5.03405,-22.5161 44.76945,-62.5225305 69.3023,-69.7750395 105.39916,-77.8750895 149.68528,-33.5889695 18.17601,18.17601 20.82489,24.87519 20.82489,52.6674995 0,30.0129105 -2.03795,34.0779505 -35.46706,70.7449005 -63.70535,69.875645 -106.11571,110.582145 -115.2108,110.582145 -4.91017,0 -41.73552,-33.21707 -81.83411,-73.81572 z m 135.9588,17.62329 c 2.15107,-3.48051 -13.54108,-24.50278 -34.87146,-46.716155 -31.20175,-32.49339 -40.48954,-38.97125 -47.51555,-33.14017 -7.19021,5.96734 -1.82221,14.2206 30.38449,46.716145 40.34498,40.70682 45.35344,43.89862 52.00252,33.14018 z m 21.7568,-26.59034 c 0,-4.39253 -16.80282,-24.613905 -37.3396,-44.936395 -29.36182,-29.05543 -38.96271,-35.3269 -44.9364,-29.3532 -5.9737,5.97368 0.29776,15.57457 29.3532,44.93639 35.90033,36.278875 52.9228,45.720245 52.9228,29.353205 z M 469.31327,9.8805545 c 0,-27.8081295 -2.43944,-33.7740495 -20.35569,-49.7822295 -16.23715,-14.50789 -26.15564,-18.1878 -49.02176,-18.1878 -27.30556,0 -30.99874,2.27 -77.81454,47.82863 -46.43139,45.18451 -58.81987,64.36593 -41.57129,64.36593 4.16747,0 20.91142,-13.13372 37.20882,-29.18605 28.90194,-28.4673605 29.93788,-28.9089105 42.06864,-17.9307205 12.21575,11.0550905 26.29342,11.0560305 53.38854,0.003 10.78687,-4.40011 11.39093,-3.76145 4.48443,4.7412505 -11.29433,13.90461 -35.87624,17.14798 -54.95341,7.25061 -32.50687,-16.8647605 -27.83091,0.11371 10.75271,39.04345 l 39.45376,39.80755 28.1799,-28.1799 c 26.00529,-26.00529 28.17989,-30.61797 28.17989,-59.7743305 z"
       id="path1320"
       inkscape:export-xdpi="10.03"
       inkscape:export-ydpi="10.03" />
  </g>
</svg>
